<svg width="23" height="28" viewBox="0 0 23 28" fill="none" xmlns="http://www.w3.org/2000/svg">
<path d="M11.3752 6.61341C11.4181 6.61341 11.458 6.60284 11.501 6.60284C13.8349 6.60284 15.7425 8.10555 16.04 10.0453L21.2001 4.78586C20.0883 3.24354 18.5518 1.99569 16.7531 1.16247L11.3752 6.61341ZM11.501 14.5257C9.16856 14.5257 7.26247 13.0257 6.96191 11.0872L2.27259 15.8396C2.91357 16.7388 3.62357 17.6117 4.33356 18.4713C4.86874 19.121 5.39165 19.7601 5.87929 20.4005L11.6574 14.5112C11.6052 14.5138 11.5546 14.5257 11.501 14.5257ZM7.48329 22.8593C7.89732 23.6595 8.20861 24.4821 8.34969 25.3523C8.56744 26.7085 9.92149 27.7305 11.504 27.7305C13.085 27.7305 14.4375 26.7177 14.6491 25.3748C15.0448 22.8632 16.8052 20.7293 18.6683 18.4713C21.3228 15.2533 24.0539 11.9244 22.5909 7.46116L7.48329 22.8593ZM8.19481 5.75774L13.68 0.197198C13.1878 0.111367 12.6909 0.0413814 12.1833 0.0162923C9.16089 -0.130281 6.29179 0.716146 4.0238 2.39316L8.19481 5.75774ZM1.9797 4.36463C0.708458 5.99014 0 7.922 0 9.90404C0 11.1083 0.295958 12.2254 0.768263 13.2858L6.20745 7.77279L1.9797 4.36463Z" fill="#1F0CF3"/>
</svg>
