<svg width="25" height="22" viewBox="0 0 25 22" fill="none" xmlns="http://www.w3.org/2000/svg">
<path d="M21.75 0H2.41667V1.83333H21.75V0ZM2.41667 22H21.75V20.1667H2.41667V22ZM21.75 3.66667H2.41667C1.0875 3.66667 0 4.49167 0 5.5V16.5C0 17.5083 1.0875 18.3333 2.41667 18.3333H21.75C23.0792 18.3333 24.1667 17.5083 24.1667 16.5V5.5C24.1667 4.49167 23.0792 3.66667 21.75 3.66667ZM12.0833 6.1875C13.5817 6.1875 14.8021 7.11333 14.8021 8.25C14.8021 9.38667 13.5817 10.3125 12.0833 10.3125C10.585 10.3125 9.36458 9.38667 9.36458 8.25C9.36458 7.11333 10.585 6.1875 12.0833 6.1875ZM18.125 15.5833H6.04167V14.2083C6.04167 12.6775 10.0654 11.9167 12.0833 11.9167C14.1012 11.9167 18.125 12.6775 18.125 14.2083V15.5833Z" fill="white"/>
</svg>
