<svg width="28" height="25" viewBox="0 0 28 25" fill="none" xmlns="http://www.w3.org/2000/svg">
<path d="M20.5927 11.8034L23.0345 9.62553L17.202 4.42356L14.7601 6.60145L8.32105 0.872345C7.10789 -0.209665 5.13261 -0.209665 3.91945 0.872345L0.964308 3.50801C-0.248854 4.59002 -0.248854 6.35175 0.964308 7.43376L7.38785 13.1629L0 19.7659V24.9679H5.83251L13.2359 18.3648L19.6595 24.0939C21.137 25.4118 23.1279 24.9263 24.0611 24.0939L27.0162 21.4583C28.2294 20.3763 28.2294 18.6145 27.0162 17.5325L20.5927 11.8034ZM9.61198 11.1931L3.17289 5.46395L6.11247 2.82829L8.08775 4.59002L6.25245 6.24078L8.44548 8.19672L10.2963 6.54596L12.5516 8.55739L9.61198 11.1931ZM21.868 22.138L15.4445 16.4089L18.3996 13.7732L20.6549 15.7847L18.804 17.4354L20.997 19.3914L22.8479 17.7406L24.8232 19.5023L21.868 22.138Z" fill="white"/>
<path d="M27.545 5.60272C28.1516 5.06171 28.1516 4.18778 27.545 3.64678L23.9055 0.400747C23.1745 -0.251233 22.1636 -0.00153819 21.7125 0.400747L18.8663 2.93931L24.6988 8.14128L27.545 5.60272Z" fill="white"/>
</svg>
