<svg width="28" height="25" viewBox="0 0 28 25" fill="none" xmlns="http://www.w3.org/2000/svg">
<path d="M20.5927 11.8034L23.0346 9.62555L17.2021 4.42357L14.7602 6.60146L8.32107 0.872347C7.1079 -0.209665 5.13262 -0.209665 3.91946 0.872347L0.964311 3.50802C-0.248855 4.59003 -0.248855 6.35177 0.964311 7.43378L7.38786 13.1629L0 19.7659V24.9679H5.83252L13.2359 18.3649L19.6595 24.094C21.1371 25.4118 23.1279 24.9263 24.0611 24.094L27.0163 21.4583C28.2294 20.3763 28.2294 18.6146 27.0163 17.5326L20.5927 11.8034ZM9.612 11.1931L3.17289 5.46396L6.11249 2.82829L8.08777 4.59003L6.25247 6.24079L8.4455 8.19674L10.2964 6.54597L12.5516 8.55741L9.612 11.1931ZM21.8681 22.138L15.4445 16.4089L18.3997 13.7733L20.6549 15.7847L18.8041 17.4355L20.9971 19.3914L22.8479 17.7406L24.8232 19.5024L21.8681 22.138Z" fill="white"/>
<path d="M27.5451 5.60273C28.1516 5.06172 28.1516 4.18779 27.5451 3.64678L23.9056 0.400748C23.1746 -0.251233 22.1636 -0.0015382 21.7125 0.400748L18.8663 2.93932L24.6988 8.1413L27.5451 5.60273Z" fill="white"/>
</svg>
